<?xml version="1.0" encoding="UTF-8" standalone="no"?>
<!-- Created with Inkscape (http://www.inkscape.org/) -->

<svg
   width="24.0px"
   height="24.0px"
   viewBox="0 0 24.0 24.0"
   version="1.1"
   id="SVGRoot"
   sodipodi:docname="personal-logo-svg.svg"
   inkscape:version="1.2.2 (b0a8486541, 2022-12-01)"
   inkscape:export-filename="personal-logo-png.png"
   inkscape:export-xdpi="1020"
   inkscape:export-ydpi="1020"
   xmlns:inkscape="http://www.inkscape.org/namespaces/inkscape"
   xmlns:sodipodi="http://sodipodi.sourceforge.net/DTD/sodipodi-0.dtd"
   xmlns="http://www.w3.org/2000/svg"
   xmlns:svg="http://www.w3.org/2000/svg">
  <sodipodi:namedview
     id="namedview4108"
     pagecolor="#505050"
     bordercolor="#ffffff"
     borderopacity="1"
     inkscape:showpageshadow="0"
     inkscape:pageopacity="0"
     inkscape:pagecheckerboard="1"
     inkscape:deskcolor="#505050"
     inkscape:document-units="px"
     showgrid="true"
     inkscape:zoom="25.51965"
     inkscape:cx="11.265828"
     inkscape:cy="11.912389"
     inkscape:window-width="1920"
     inkscape:window-height="1011"
     inkscape:window-x="0"
     inkscape:window-y="0"
     inkscape:window-maximized="1"
     inkscape:current-layer="layer1">
    <inkscape:grid
       type="xygrid"
       id="grid4114" />
  </sodipodi:namedview>
  <defs
     id="defs4103" />
  <g
     inkscape:label="Layer 1"
     inkscape:groupmode="layer"
     id="layer1">
    <path
       sodipodi:type="star"
       style="stroke-linejoin:round;stroke-linecap:round;stroke-width:2;stroke:#BDD4FE;fill:#BDD4FE;"
       id="path4233"
       inkscape:flatsided="false"
       sodipodi:sides="4"
       sodipodi:cx="4"
       sodipodi:cy="8"
       sodipodi:r1="6"
       sodipodi:r2="2.5673206"
       sodipodi:arg1="1.5707963"
       sodipodi:arg2="2.3561945"
       inkscape:rounded="0"
       inkscape:randomized="0"
       d="M 4.0000002,14 2.1846302,9.8153698 -2,8.0000002 2.1846302,6.1846302 3.9999998,2 5.8153698,6.1846302 10,7.9999998 5.8153698,9.8153698 Z"
       transform="matrix(0.86374466,0,0,0.86374465,13.977005,0.52202684)" />
    <path
       sodipodi:type="star"
       style="fill:#fcdafc;stroke:#fcdafc;stroke-width:2;stroke-linecap:round;stroke-linejoin:round"
       id="path4235"
       inkscape:flatsided="false"
       sodipodi:sides="4"
       sodipodi:cx="15"
       sodipodi:cy="6"
       sodipodi:r1="3"
       sodipodi:r2="1.2836603"
       sodipodi:arg1="1.5707963"
       sodipodi:arg2="2.3561945"
       inkscape:rounded="0"
       inkscape:randomized="0"
       d="M 15,9 14.092315,6.9076849 12,6.0000001 14.092315,5.0923151 15,3 15.907685,5.0923151 18,5.9999999 15.907685,6.9076849 Z"
       transform="matrix(0.60579345,0,0,0.58695549,2.9788127,-0.51064717)" />
    <path
       sodipodi:type="star"
       style="fill:#fcdafc;stroke:#fcdafc;stroke-width:2;stroke-linecap:round;stroke-linejoin:round"
       id="path4237"
       inkscape:flatsided="false"
       sodipodi:sides="4"
       sodipodi:cx="15"
       sodipodi:cy="6"
       sodipodi:r1="3"
       sodipodi:r2="1.2836603"
       sodipodi:arg1="1.5707963"
       sodipodi:arg2="2.3561945"
       inkscape:rounded="0"
       inkscape:randomized="0"
       d="M 15,9 14.092315,6.9076849 12,6.0000001 14.092315,5.0923151 15,3 15.907685,5.0923151 18,5.9999999 15.907685,6.9076849 Z"
       transform="matrix(0.60579345,0,0,0.58695549,3.7592886,9.0467414)" />
    <path
       id="path4375"
       style="stroke-linejoin:round;stroke-linecap:round;stroke-width:1.67067;stroke:#BDD4FE;fill:#BDD4FE;"
       d="M 8.318955,3.3561427 A 10.023998,10.023998 0 0 0 1,13 10.023998,10.023998 0 0 0 11.023998,23.023998 10.023998,10.023998 0 0 0 19.028187,18.990905 11.052101,11.052101 0 0 1 18.349479,19.039847 11.052101,11.052101 0 0 1 7.297629,7.9880002 11.052101,11.052101 0 0 1 8.318955,3.3561427 Z" />
    <path
       sodipodi:type="star"
       style="fill:#fcdafc;stroke:#fcdafc;stroke-width:2;stroke-linecap:round;stroke-linejoin:round"
       id="path4414"
       inkscape:flatsided="false"
       sodipodi:sides="4"
       sodipodi:cx="15"
       sodipodi:cy="6"
       sodipodi:r1="3"
       sodipodi:r2="1.2836603"
       sodipodi:arg1="1.5707963"
       sodipodi:arg2="2.3561945"
       inkscape:rounded="0"
       inkscape:randomized="0"
       d="M 15,9 14.092315,6.9076849 12,6.0000001 14.092315,5.0923151 15,3 15.907685,5.0923151 18,5.9999999 15.907685,6.9076849 Z"
       transform="matrix(0.60579345,0,0,0.58695549,11.851727,11.875178)" />
  </g>
</svg>
